<?xml version="1.0" encoding="UTF-8"?>
<svg xmlns="http://www.w3.org/2000/svg" xmlns:xlink="http://www.w3.org/1999/xlink" width="32pt" height="32pt" viewBox="0 0 32 32" version="1.1">
<g id="surface1">
<path style=" stroke:none;fill-rule:nonzero;fill:rgb(0%,0%,0%);fill-opacity:1;" d="M 20.21875 9.242188 C 19.460938 9.460938 18.96875 9.742188 18.398438 10.289062 C 17.679688 10.976562 16.925781 12.167969 16.46875 13.34375 C 16.375 13.582031 16.28125 13.800781 16.257812 13.832031 C 16.230469 13.855469 15.949219 13.636719 15.632812 13.351562 C 14.886719 12.6875 14.25 12.335938 13.542969 12.210938 C 12.136719 11.96875 10.804688 12.695312 10.40625 13.925781 C 10.230469 14.457031 10.292969 15.132812 10.582031 15.699219 C 10.707031 15.949219 10.949219 16.3125 11.125 16.5 C 12.082031 17.539062 12.164062 17.664062 12.09375 18.09375 C 11.992188 18.789062 11.195312 19.195312 10.445312 18.9375 C 10.082031 18.820312 9.8125 18.601562 9.8125 18.429688 C 9.8125 18.367188 9.882812 18.1875 9.96875 18.023438 C 10.242188 17.507812 10.136719 16.867188 9.738281 16.625 C 9.429688 16.4375 8.945312 16.449219 8.726562 16.65625 C 8.507812 16.855469 8.4375 17.0625 8.4375 17.507812 C 8.4375 18.648438 9.726562 19.582031 11.3125 19.582031 C 12.957031 19.582031 14.136719 18.507812 14.050781 17.101562 C 14.011719 16.480469 13.730469 15.976562 12.9375 15.070312 C 12.242188 14.273438 12.125 14.023438 12.242188 13.613281 C 12.34375 13.28125 12.667969 12.960938 13 12.875 C 13.625 12.707031 14.394531 13.03125 15.375 13.875 C 16.113281 14.507812 16.085938 14.449219 15.882812 15.1875 C 15.75 15.667969 15.40625 17.324219 15.21875 18.375 C 15.03125 19.417969 14.574219 21.21875 14.351562 21.800781 C 13.875 23.039062 13.15625 23.820312 12.367188 23.960938 C 12.195312 23.992188 12.105469 23.976562 11.992188 23.875 L 11.84375 23.75 L 12.101562 23.511719 C 12.523438 23.125 12.585938 22.90625 12.398438 22.4375 C 12.207031 21.957031 11.480469 21.71875 10.980469 21.976562 C 10.414062 22.269531 10.1875 22.835938 10.375 23.511719 C 10.460938 23.824219 10.960938 24.269531 11.355469 24.382812 C 11.78125 24.507812 12.644531 24.488281 13.0625 24.351562 C 13.917969 24.0625 14.761719 23.507812 15.3125 22.875 C 16.8125 21.125 17.480469 19.40625 18.070312 15.792969 L 18.148438 15.3125 L 18.8125 15.3125 C 20.167969 15.3125 21.195312 14.863281 21.554688 14.101562 C 21.78125 13.636719 21.695312 13.082031 21.363281 12.851562 C 21.0625 12.636719 20.457031 12.789062 20.289062 13.117188 C 20.15625 13.367188 20.164062 13.519531 20.3125 13.8125 C 20.511719 14.207031 20.480469 14.332031 20.132812 14.523438 C 19.761719 14.726562 18.980469 14.851562 18.542969 14.789062 C 18.28125 14.75 18.25 14.726562 18.28125 14.605469 C 18.292969 14.53125 18.363281 14.175781 18.429688 13.8125 C 18.988281 10.867188 19.617188 9.75 20.800781 9.644531 C 21.417969 9.585938 21.5625 9.761719 21.3125 10.25 C 21.042969 10.78125 21.226562 11.335938 21.726562 11.5 C 22 11.59375 22.417969 11.53125 22.605469 11.382812 C 23.125 10.949219 23.136719 10.085938 22.632812 9.636719 C 22.09375 9.15625 21.074219 8.992188 20.21875 9.242188 Z M 20.21875 9.242188 "/>
</g>
</svg>
